<?xml version="1.0" encoding="UTF-8" standalone="no"?>
<!-- Created with Inkscape (http://www.inkscape.org/) -->

<svg
   xmlns:dc="http://purl.org/dc/elements/1.1/"
   xmlns:cc="http://creativecommons.org/ns#"
   xmlns:rdf="http://www.w3.org/1999/02/22-rdf-syntax-ns#"
   xmlns:svg="http://www.w3.org/2000/svg"
   xmlns="http://www.w3.org/2000/svg"
   xmlns:xlink="http://www.w3.org/1999/xlink"
   xmlns:sodipodi="http://sodipodi.sourceforge.net/DTD/sodipodi-0.dtd"
   xmlns:inkscape="http://www.inkscape.org/namespaces/inkscape"
   width="600"
   height="600"
   id="svg6988"
   version="1.1"
   inkscape:version="0.48.4 r9939"
   sodipodi:docname="download.svg">
  <defs
     id="defs6990">
    <clipPath
       clipPathUnits="userSpaceOnUse"
       id="clipPath834">
      <path
         inkscape:connector-curvature="0"
         d="m 3956.33,1204.96 -553.33,0 c -62.75,0 -113.79,-51.05 -113.79,-113.79 l 0,-257.147 c 39.88,-12.187 83,-18.359 128.5,-18.359 l 0.04,0 c 63.23,0 130.63,11.875 200.31,35.254 174.26,58.496 333.51,125.516 452.06,175.782 l 0,64.47 c 0,62.74 -51.04,113.79 -113.79,113.79 l 0,0"
         id="path836" />
    </clipPath>
    <linearGradient
       x1="0"
       y1="0"
       x2="1"
       y2="0"
       gradientUnits="userSpaceOnUse"
       gradientTransform="matrix(-4.0968997e-6,-107.66848,425.84917,-2.5507329e-5,71.663398,-160.0986)"
       spreadMethod="pad"
       id="linearGradient838">
      <stop
         style="stop-color:#393536;stop-opacity:1;"
         offset="0"
         id="stop840" />
      <stop
         style="stop-opacity:1;stop-color:#5d5a5b"
         offset="0.0484848"
         id="stop842" />
      <stop
         style="stop-opacity:1;stop-color:#343131"
         offset="1"
         id="stop844" />
    </linearGradient>
    <clipPath
       clipPathUnits="userSpaceOnUse"
       id="clipPath800">
      <path
         inkscape:connector-curvature="0"
         d="m 3417.71,815.664 c -45.5,0 -88.62,6.172 -128.5,18.359 l 0,257.147 c 0,62.74 51.04,113.79 113.79,113.79 l 553.33,0 c 62.75,0 113.79,-51.05 113.79,-113.79 l 0,-64.47 c -118.55,-50.266 -277.8,-117.286 -452.06,-175.782 -69.68,-23.379 -137.08,-35.254 -200.31,-35.254 l -0.04,0 0,0 z m 538.62,424.496 -553.35,0 c -82.28,0 -148.98,-66.7 -148.98,-148.99 l 0,-553.338 c 0,-82.285 66.7,-148.984 148.98,-148.984 l 553.35,0 c 82.26,0 148.97,66.699 148.97,148.984 l 0,553.338 c 0,82.29 -66.71,148.99 -148.97,148.99 l 0,0"
         id="path802" />
    </clipPath>
    <linearGradient
       x1="0"
       y1="0"
       x2="1"
       y2="0"
       gradientUnits="userSpaceOnUse"
       gradientTransform="matrix(-4e-6,-84.4216,422.816,-2e-5,156.557,122.088)"
       spreadMethod="pad"
       id="linearGradient804">
      <stop
         style="stop-opacity:1;stop-color:#393536"
         offset="0"
         id="stop806" />
      <stop
         style="stop-opacity:1;stop-color:#4f4c4d"
         offset="0.0484848"
         id="stop808" />
      <stop
         style="stop-opacity:1;stop-color:#231f20"
         offset="1"
         id="stop810" />
    </linearGradient>
    <linearGradient
       inkscape:collect="always"
       xlink:href="#linearGradient804"
       id="linearGradient3010"
       gradientUnits="userSpaceOnUse"
       gradientTransform="matrix(-4e-6,-84.4216,422.816,-2e-5,156.557,122.088)"
       spreadMethod="pad"
       x1="0"
       y1="0"
       x2="1"
       y2="0" />
    <linearGradient
       inkscape:collect="always"
       xlink:href="#linearGradient838"
       id="linearGradient3012"
       gradientUnits="userSpaceOnUse"
       gradientTransform="matrix(-4.0968997e-6,-107.66848,425.84917,-2.5507329e-5,71.663398,-160.0986)"
       spreadMethod="pad"
       x1="0"
       y1="0"
       x2="1"
       y2="0" />
  </defs>
  <sodipodi:namedview
     id="base"
     pagecolor="#ffffff"
     bordercolor="#666666"
     borderopacity="1.0"
     inkscape:pageopacity="0.0"
     inkscape:pageshadow="2"
     inkscape:zoom="1.4"
     inkscape:cx="-34.838244"
     inkscape:cy="320.05626"
     inkscape:document-units="px"
     inkscape:current-layer="Your_Icon"
     showgrid="false"
     inkscape:window-width="1855"
     inkscape:window-height="1056"
     inkscape:window-x="65"
     inkscape:window-y="24"
     inkscape:window-maximized="1"
     fit-margin-top="0"
     fit-margin-left="0"
     fit-margin-right="0"
     fit-margin-bottom="0" />
  <metadata
     id="metadata6993">
    <rdf:RDF>
      <cc:Work
         rdf:about="">
        <dc:format>image/svg+xml</dc:format>
        <dc:type
           rdf:resource="http://purl.org/dc/dcmitype/StillImage" />
        <dc:title></dc:title>
      </cc:Work>
    </rdf:RDF>
  </metadata>
  <g
     inkscape:label="Layer 1"
     inkscape:groupmode="layer"
     id="layer1"
     transform="translate(-343.93657,40.145112)">
    <g
       id="g3002"
       transform="matrix(2,0,0,2,-343.93657,-559.85489)">
      <g
         id="g796"
         transform="matrix(0.35240221,0,0,-0.35239724,-802.78022,696.88385)">
        <g
           clip-path="url(#clipPath800)"
           id="g798">
          <path
             id="path812"
             style="fill:url(#linearGradient3010);fill-opacity:1;fill-rule:nonzero;stroke:none"
             d="m 3417.71,815.664 c -45.5,0 -88.62,6.172 -128.5,18.359 l 0,257.147 c 0,62.74 51.04,113.79 113.79,113.79 l 553.33,0 c 62.75,0 113.79,-51.05 113.79,-113.79 l 0,-64.47 c -118.55,-50.266 -277.8,-117.286 -452.06,-175.782 -69.68,-23.379 -137.08,-35.254 -200.31,-35.254 l -0.04,0 0,0 z m 538.62,424.496 -553.35,0 c -82.28,0 -148.98,-66.7 -148.98,-148.99 l 0,-553.338 c 0,-82.285 66.7,-148.984 148.98,-148.984 l 553.35,0 c 82.26,0 148.97,66.699 148.97,148.984 l 0,553.338 c 0,82.29 -66.71,148.99 -148.97,148.99 l 0,0"
             inkscape:connector-curvature="0" />
        </g>
      </g>
      <g
         transform="matrix(0.36663038,0,0,-0.44943563,-856.24611,808.17285)"
         id="g830">
        <g
           clip-path="url(#clipPath834)"
           id="g832">
          <path
             inkscape:connector-curvature="0"
             id="path846"
             style="fill:url(#linearGradient3012);fill-opacity:1;fill-rule:nonzero;stroke:none"
             d="m 3959.8793,1220.96 -566.7344,0 c -64.2702,0 -116.5466,-65.1075 -116.5466,-145.124 l 0,-327.9566 c 40.8461,-15.54289 85.0107,-23.41445 131.6129,-23.41445 l 0.041,0 c 64.7616,0 133.7944,15.14498 205.1625,44.96177 178.4813,74.60384 341.5891,160.07889 463.011,224.18644 l 0,82.22284 c 0,80.0165 -52.2764,145.124 -116.5465,145.124 l 0,0" />
        </g>
      </g>
    </g>
    <g
       transform="matrix(6.625,0,0,6.4464286,314.47229,-69.96654)"
       id="Your_Icon">
      <g
         id="g6"
         style="fill:#ffffff;fill-opacity:0.94117647">
        <path
           inkscape:connector-curvature="0"
           d="M 77,14 H 23 c -4.97,0 -9,4.03 -9,9 v 54 c 0,4.969 4.03,9 9,9 h 54 c 4.971,0 9,-4.031 9,-9 V 23 c 0,-4.97 -4.029,-9 -9,-9 z m 0,63 H 23 V 23 h 54 v 54 z"
           id="path8"
           style="fill:#ffffff;fill-opacity:0.94117647" />
        <polygon
           points="56,50 56,29 44,29 44,50 32,50 50,71 68,50 "
           id="polygon10"
           style="fill:#ffffff;fill-opacity:0.94117647" />
      </g>
    </g>
  </g>
</svg>
